<?xml version="1.0" encoding="UTF-8"?>
<svg xmlns="http://www.w3.org/2000/svg" viewBox="0 0 237.8 54.03">
  <defs>
    <style>
      .cls-1 {
        opacity: 0;
      }

      .cls-1, .cls-2 {
        fill: #231f20;
      }
    </style>
  </defs>
  <g id="Layer_1">
    <g>
      <path class="cls-2" d="M46.83,49.85c0,.28-.28.42-.84.42-.45,0-1.1-.04-1.95-.11-.86-.07-1.51-.11-1.95-.11s-1.11.04-2,.11c-.89.07-1.56.11-2,.11-.66,0-1.49-1.78-2.51-5.33s-2.06-5.35-3.11-5.4c-.87-.05-3.13-.07-6.79-.07h-5.55c-3.87,0-6.07.02-6.61.07-.84.07-1.74,1.88-2.69,5.41-.95,3.54-1.68,5.31-2.2,5.31H.71c-.47,0-.7-.16-.7-.49,0-.23.16-.76.49-1.58l8.61-23.55c.73-1.9,2.93-7.37,6.61-16.42.66-1.5,1.55-3.76,2.67-6.79.28-.89.59-1.34.91-1.34.44,0,1.1.06,1.97.18.87.12,1.52.18,1.97.18.42,0,1.06-.06,1.92-.19.86-.13,1.48-.19,1.88-.19.21,0,.5.43.88,1.3.56,1.31,3.34,8.38,8.33,21.2,7.05,18.02,10.58,27.12,10.58,27.28ZM30.45,30.45c0-.68-1.05-3.73-3.16-9.14-2.04-5.25-3.48-8.7-4.32-10.34-4.85,12.38-7.28,18.86-7.28,19.44,0,.8.89,1.27,2.67,1.41.09.02,1.24.04,3.45.04h3.62c3.35,0,5.03-.47,5.03-1.41Z"/>
      <path class="cls-1" d="M59.63,1.51l-.04.46c-.52,8.72-.77,16.21-.77,22.46,0,2.79.05,6.97.14,12.53.09,5.57.14,9.73.14,12.5,0,.54-.19.81-.56.81h-6.71c-.42,0-.63-.27-.63-.81,0-2.77.02-6.93.07-12.5.05-5.57.07-9.74.07-12.53,0-2.53-.12-6.33-.37-11.41-.25-5.07-.37-8.86-.37-11.37,0-.47.25-.7.74-.7.42,0,1.05.04,1.9.11s1.48.11,1.9.11c.44,0,1.1-.04,1.97-.11.87-.07,1.51-.11,1.93-.11s.62.19.6.56Z"/>
      <path class="cls-1" d="M101.47,33.29c0,4.64-1.44,8.68-4.32,12.13-3.07,3.66-6.89,5.48-11.46,5.48-3.05,0-5.73-.77-8.05-2.32-.94-.8-1.88-1.58-2.81-2.36-.26.07-.43.77-.51,2.11-.08,1.34-.28,2-.58,2h-7.42c-.28,0-.42-.15-.42-.46,0,.02.02-.19.07-.63.37-3.75.56-10.92.56-21.52,0-4.34-.19-10.7-.56-19.09-.23-5.34-.35-7.69-.35-7.03,0-.61.3-.95.91-1.02.84-.02,2.1-.07,3.76-.14.33-.02,1-.11,2-.25.84-.14,1.52-.21,2.04-.21.37,0,.56.27.56.81,0,.8-.06,2.02-.18,3.66-.12,1.64-.18,2.87-.18,3.69,0,1.22-.05,3.05-.16,5.5-.11,2.45-.16,4.28-.16,5.5,0,.89.16,1.34.49,1.34.16,0,.34-.13.53-.39,2.58-3.21,5.99-4.82,10.23-4.82,4.85,0,8.78,1.82,11.78,5.45,2.81,3.42,4.22,7.61,4.22,12.55ZM93.52,32.98c0-2.79-.88-5.25-2.64-7.38-1.88-2.27-4.18-3.41-6.93-3.41s-5.16,1.11-7.03,3.34c-1.81,2.11-2.71,4.59-2.71,7.45s.9,5.41,2.71,7.52c1.88,2.2,4.24,3.3,7.1,3.3s5.07-1.14,6.93-3.41c1.71-2.11,2.57-4.58,2.57-7.42Z"/>
      <path class="cls-1" d="M139.05,18.39c0,1.71-.07,4.29-.21,7.75-.14,3.46-.21,6.05-.21,7.79s.05,4.27.16,7.68.16,5.97.16,7.68c0,.47-.22.77-.67.91-.19.05-2.57.07-7.14.07-.28,0-.45-.88-.51-2.64-.06-1.76-.19-2.64-.4-2.64-.12,0-.29.11-.53.32-3.92,3.4-7.78,5.1-11.6,5.1-5.18,0-8.6-1.88-10.27-5.62-1.03-2.32-1.55-6.49-1.55-12.52,0-5.44.43-10.04,1.3-13.82.21-.91.6-1.37,1.16-1.37.68,0,1.7.01,3.06.04,1.36.02,2.38.04,3.06.04.47,0,.7.26.7.77,0,.91-.15,2.44-.46,4.57-.33,2.27-.5,3.88-.53,4.82-.07,1.41-.11,2.95-.11,4.64,0,4.1.29,6.86.88,8.26,1.01,2.53,3.25,3.8,6.71,3.8,1.48,0,3.22-.73,5.24-2.18,2.13-1.52,3.23-2.99,3.31-4.39.12-1.76.18-7.95.18-18.56,0-1.15.48-1.72,1.44-1.72h5.8c.68,0,1.02.41,1.02,1.23Z"/>
      <path class="cls-1" d="M199.66,48.97c0,.91-.27,1.37-.81,1.37-.35,0-.88-.04-1.6-.11-.72-.07-1.26-.11-1.63-.11-.4,0-1,.02-1.79.07-.8.05-1.39.07-1.79.07-.49,0-.74-.55-.74-1.65s.04-2.69.12-4.83c.08-2.14.12-3.76.12-4.83,0-5.93-.02-9.23-.07-9.91-.19-2.41-.68-4.08-1.48-4.99-.91-.98-2.54-1.48-4.89-1.48-1.48,0-3.14.7-4.99,2.11-1.92,1.48-2.92,2.93-2.99,4.36-.09,1.83-.14,5.17-.14,10.02,0,1.15.05,2.87.14,5.17.09,2.3.14,4.02.14,5.17,0,.63-.21.95-.63.95s-1.04-.04-1.85-.11-1.42-.11-1.85-.11c-.38,0-.93.02-1.65.07-.73.05-1.28.07-1.65.07-.47,0-.7-.34-.7-1.02,0-1.12.04-2.82.11-5.08.07-2.26.11-3.96.11-5.08v-8.47c0-2.65-.32-4.54-.95-5.66-.89-1.59-2.59-2.39-5.1-2.39-1.48,0-3.23.62-5.27,1.86-2.25,1.36-3.38,2.73-3.38,4.11v10.27c0,1.17.01,2.92.04,5.24.02,2.32.04,4.06.04,5.2,0,.68-.27,1.02-.81,1.02h-6.54c-.47,0-.7-.32-.7-.95,0-1.9.01-4.75.04-8.56.02-3.81.04-6.66.04-8.56,0-4.29-.46-8.57-1.37-12.83-.07-.3-.11-.55-.11-.74,0-.3.11-.48.32-.53.87-.09,2.13-.27,3.8-.53.77-.23,1.93-.49,3.48-.77l.28-.04c.28,0,.54.83.79,2.48s.46,2.48.65,2.48l1.76-1.55c1.38-1.2,2.76-2.14,4.15-2.85,1.99-1.03,3.98-1.55,5.98-1.55,5.39,0,8.82,2.2,10.3,6.61,1.45-1.88,3.26-3.42,5.41-4.64,2.3-1.31,4.57-1.97,6.82-1.97,4.34,0,7.33,1.27,9,3.8,1.2,1.88,1.79,4.84,1.79,8.89,0,.77-.02,1.97-.07,3.59-.05,1.62-.07,2.81-.07,3.59,0,1.48.04,3.7.11,6.66.07,2.97.11,5.19.11,6.66Z"/>
      <path class="cls-1" d="M223.07,39.45c0,3.49-1.39,6.29-4.18,8.4-2.53,1.92-5.61,2.88-9.25,2.88-1.41,0-2.2-.04-2.39-.11-.4-.19-.6-.76-.6-1.72,0-.52-.07-1.29-.19-2.32-.13-1.03-.19-1.79-.19-2.29,0-.3.21-.5.63-.6.3-.07.74-.07,1.3,0,.73.07,1.08.11,1.05.11,4.43,0,6.64-1.36,6.64-4.08,0-1.29-.97-2.47-2.92-3.55-3.16-1.73-4.98-2.8-5.45-3.2-1.95-1.66-2.92-3.84-2.92-6.54,0-3.52,1.32-6.26,3.97-8.23,2.39-1.76,5.41-2.64,9.07-2.64.33,0,.57.15.72.46.15.3.44,1.25.88,2.85.43,1.59.65,2.55.65,2.88,0,.26-.22.42-.67.49-1.5.21-3.01.41-4.54.6-1.81.49-2.71,1.48-2.71,2.95,0,1.05.95,2.12,2.85,3.2,2.81,1.57,4.59,2.71,5.34,3.41,1.92,1.83,2.88,4.17,2.88,7.03Z"/>
      <path class="cls-1" d="M237.8,46.16c0,1.41-.42,2.6-1.27,3.59s-1.96,1.48-3.34,1.48-2.5-.52-3.34-1.55c-.8-.94-1.2-2.11-1.2-3.52s.41-2.54,1.23-3.48c.82-.94,1.92-1.41,3.3-1.41s2.47.47,3.32,1.41c.86.94,1.28,2.1,1.28,3.48ZM237.66,9.88c0,5.93-.43,11.36-1.3,16.28-.35,1.85-.81,4.63-1.37,8.33-.09.91-.71,1.37-1.86,1.37-.66,0-1.11-.05-1.37-.14-.38-.12-.62-.47-.74-1.05-1.43-7.03-2.14-11.52-2.14-13.46V2.25c0-.91.14-1.37.42-1.37.42,0,1.07.06,1.93.18.87.12,1.52.18,1.97.18s1.11-.06,1.99-.18c.88-.12,1.53-.18,1.95-.18.3,0,.46.44.46,1.32s.01,2.17.04,3.87c.02,1.7.04,2.97.04,3.81Z"/>
    </g>
  </g>
  <g id="Layer_2">
    <g>
      <path class="cls-1" d="M46.83,49.85c0,.28-.28.42-.84.42-.45,0-1.1-.04-1.95-.11-.86-.07-1.51-.11-1.95-.11s-1.11.04-2,.11c-.89.07-1.56.11-2,.11-.66,0-1.49-1.78-2.51-5.33s-2.06-5.35-3.11-5.4c-.87-.05-3.13-.07-6.79-.07h-5.55c-3.87,0-6.07.02-6.61.07-.84.07-1.74,1.88-2.69,5.41-.95,3.54-1.68,5.31-2.2,5.31H.7c-.47,0-.7-.16-.7-.49,0-.23.16-.76.49-1.58l8.61-23.55c.73-1.9,2.93-7.37,6.61-16.42.66-1.5,1.55-3.76,2.67-6.79.28-.89.59-1.34.91-1.34.44,0,1.1.06,1.97.18.87.12,1.52.18,1.97.18.42,0,1.06-.06,1.92-.19.86-.13,1.48-.19,1.88-.19.21,0,.5.43.88,1.3.56,1.31,3.34,8.38,8.33,21.2,7.05,18.02,10.58,27.12,10.58,27.28ZM30.45,30.45c0-.68-1.05-3.73-3.16-9.14-2.04-5.25-3.48-8.7-4.32-10.34-4.85,12.38-7.28,18.86-7.28,19.44,0,.8.89,1.27,2.67,1.41.09.02,1.24.04,3.45.04h3.62c3.35,0,5.03-.47,5.03-1.41Z"/>
      <path class="cls-2" d="M59.62,1.51l-.04.46c-.52,8.72-.77,16.21-.77,22.46,0,2.79.05,6.97.14,12.53.09,5.57.14,9.73.14,12.5,0,.54-.19.81-.56.81h-6.71c-.42,0-.63-.27-.63-.81,0-2.76.02-6.93.07-12.5.05-5.57.07-9.74.07-12.53,0-2.53-.12-6.33-.37-11.41-.25-5.07-.37-8.86-.37-11.37,0-.47.25-.7.74-.7.42,0,1.05.04,1.9.11s1.48.11,1.9.11c.44,0,1.1-.04,1.97-.11.87-.07,1.51-.11,1.93-.11s.62.19.6.56Z"/>
      <path class="cls-1" d="M101.46,33.29c0,4.64-1.44,8.68-4.32,12.13-3.07,3.66-6.89,5.48-11.46,5.48-3.05,0-5.73-.77-8.05-2.32-.94-.8-1.88-1.58-2.81-2.36-.26.07-.43.77-.51,2.11-.08,1.34-.28,2-.58,2h-7.42c-.28,0-.42-.15-.42-.46,0,.02.02-.19.07-.63.37-3.75.56-10.92.56-21.52,0-4.34-.19-10.7-.56-19.09-.23-5.34-.35-7.69-.35-7.03,0-.61.3-.95.91-1.02.84-.02,2.1-.07,3.76-.14.33-.02,1-.11,2-.25.84-.14,1.52-.21,2.04-.21.37,0,.56.27.56.81,0,.8-.06,2.02-.18,3.66-.12,1.64-.18,2.87-.18,3.69,0,1.22-.05,3.05-.16,5.5-.11,2.45-.16,4.28-.16,5.5,0,.89.16,1.34.49,1.34.16,0,.34-.13.53-.39,2.58-3.21,5.99-4.82,10.23-4.82,4.85,0,8.78,1.82,11.78,5.45,2.81,3.42,4.22,7.61,4.22,12.55ZM93.52,32.98c0-2.79-.88-5.25-2.64-7.38-1.88-2.27-4.18-3.41-6.93-3.41s-5.16,1.11-7.03,3.34c-1.81,2.11-2.71,4.59-2.71,7.45s.9,5.41,2.71,7.52c1.88,2.2,4.24,3.3,7.1,3.3s5.07-1.14,6.93-3.41c1.71-2.11,2.57-4.58,2.57-7.42Z"/>
      <path class="cls-1" d="M139.04,18.39c0,1.71-.07,4.29-.21,7.75-.14,3.46-.21,6.05-.21,7.79s.05,4.27.16,7.68.16,5.97.16,7.68c0,.47-.22.77-.67.91-.19.05-2.57.07-7.14.07-.28,0-.45-.88-.51-2.64-.06-1.76-.19-2.64-.4-2.64-.12,0-.29.11-.53.32-3.91,3.4-7.78,5.1-11.6,5.1-5.18,0-8.6-1.88-10.27-5.62-1.03-2.32-1.55-6.49-1.55-12.52,0-5.44.43-10.04,1.3-13.82.21-.91.6-1.37,1.16-1.37.68,0,1.7.01,3.06.04,1.36.02,2.38.04,3.06.04.47,0,.7.26.7.77,0,.91-.15,2.44-.46,4.57-.33,2.27-.5,3.88-.53,4.82-.07,1.41-.11,2.95-.11,4.64,0,4.1.29,6.86.88,8.26,1.01,2.53,3.25,3.8,6.71,3.8,1.48,0,3.22-.73,5.24-2.18,2.13-1.52,3.23-2.99,3.3-4.39.12-1.76.18-7.95.18-18.56,0-1.15.48-1.72,1.44-1.72h5.8c.68,0,1.02.41,1.02,1.23Z"/>
      <path class="cls-1" d="M199.65,48.97c0,.91-.27,1.37-.81,1.37-.35,0-.88-.04-1.6-.11-.72-.07-1.26-.11-1.63-.11-.4,0-1,.02-1.79.07-.8.05-1.39.07-1.79.07-.49,0-.74-.55-.74-1.65s.04-2.69.12-4.83c.08-2.14.12-3.76.12-4.83,0-5.93-.02-9.23-.07-9.91-.19-2.41-.68-4.08-1.48-4.99-.91-.98-2.54-1.48-4.89-1.48-1.48,0-3.14.7-4.99,2.11-1.92,1.48-2.92,2.93-2.99,4.36-.09,1.83-.14,5.17-.14,10.02,0,1.15.05,2.87.14,5.17.09,2.3.14,4.02.14,5.17,0,.63-.21.95-.63.95s-1.04-.04-1.85-.11-1.42-.11-1.85-.11c-.38,0-.93.02-1.65.07-.73.05-1.28.07-1.65.07-.47,0-.7-.34-.7-1.02,0-1.12.04-2.82.11-5.08.07-2.26.11-3.96.11-5.08v-8.47c0-2.65-.32-4.54-.95-5.66-.89-1.59-2.59-2.39-5.1-2.39-1.48,0-3.23.62-5.27,1.86-2.25,1.36-3.38,2.73-3.38,4.11v10.27c0,1.17.01,2.92.04,5.24.02,2.32.04,4.06.04,5.2,0,.68-.27,1.02-.81,1.02h-6.54c-.47,0-.7-.32-.7-.95,0-1.9.01-4.75.04-8.56.02-3.81.04-6.66.04-8.56,0-4.29-.46-8.57-1.37-12.83-.07-.3-.11-.55-.11-.74,0-.3.11-.48.32-.53.87-.09,2.13-.27,3.8-.53.77-.23,1.93-.49,3.48-.77l.28-.04c.28,0,.54.83.79,2.48s.46,2.48.65,2.48l1.76-1.55c1.38-1.2,2.76-2.14,4.15-2.85,1.99-1.03,3.98-1.55,5.98-1.55,5.39,0,8.82,2.2,10.3,6.61,1.45-1.88,3.26-3.42,5.41-4.64,2.3-1.31,4.57-1.97,6.82-1.97,4.34,0,7.33,1.27,9,3.8,1.2,1.88,1.79,4.84,1.79,8.89,0,.77-.02,1.97-.07,3.59-.05,1.62-.07,2.81-.07,3.59,0,1.48.04,3.7.11,6.66.07,2.97.11,5.19.11,6.66Z"/>
      <path class="cls-1" d="M223.07,39.45c0,3.49-1.39,6.29-4.18,8.4-2.53,1.92-5.61,2.88-9.25,2.88-1.41,0-2.2-.04-2.39-.11-.4-.19-.6-.76-.6-1.72,0-.51-.07-1.29-.19-2.32-.13-1.03-.19-1.79-.19-2.29,0-.3.21-.5.63-.6.3-.07.74-.07,1.3,0,.73.07,1.08.11,1.05.11,4.43,0,6.64-1.36,6.64-4.08,0-1.29-.97-2.47-2.92-3.55-3.16-1.73-4.98-2.8-5.45-3.2-1.95-1.66-2.92-3.84-2.92-6.54,0-3.52,1.32-6.26,3.97-8.23,2.39-1.76,5.41-2.64,9.07-2.64.33,0,.57.15.72.46.15.3.44,1.25.88,2.85.43,1.59.65,2.55.65,2.88,0,.26-.22.42-.67.49-1.5.21-3.01.41-4.54.6-1.81.49-2.71,1.48-2.71,2.95,0,1.05.95,2.12,2.85,3.2,2.81,1.57,4.59,2.71,5.34,3.41,1.92,1.83,2.88,4.17,2.88,7.03Z"/>
      <path class="cls-1" d="M237.8,46.16c0,1.41-.42,2.6-1.27,3.59s-1.96,1.48-3.34,1.48-2.5-.52-3.34-1.55c-.8-.94-1.2-2.11-1.2-3.52s.41-2.54,1.23-3.48c.82-.94,1.92-1.41,3.3-1.41s2.47.47,3.32,1.41c.86.94,1.28,2.1,1.28,3.48ZM237.66,9.88c0,5.93-.43,11.36-1.3,16.28-.35,1.85-.81,4.63-1.37,8.33-.09.91-.71,1.37-1.86,1.37-.66,0-1.11-.05-1.37-.14-.38-.12-.62-.47-.74-1.05-1.43-7.03-2.14-11.52-2.14-13.46V2.25c0-.91.14-1.37.42-1.37.42,0,1.07.06,1.93.18.87.12,1.52.18,1.97.18s1.11-.06,1.99-.18c.88-.12,1.53-.18,1.95-.18.3,0,.46.44.46,1.32s.01,2.17.04,3.87c.02,1.7.04,2.97.04,3.81Z"/>
    </g>
  </g>
  <g id="Layer_3">
    <g>
      <path class="cls-1" d="M46.83,51.72c0,.28-.28.42-.84.42-.45,0-1.1-.04-1.95-.11-.86-.07-1.51-.11-1.95-.11s-1.11.04-2,.11c-.89.07-1.56.11-2,.11-.66,0-1.49-1.78-2.51-5.33s-2.06-5.35-3.11-5.4c-.87-.05-3.13-.07-6.79-.07h-5.55c-3.87,0-6.07.02-6.61.07-.84.07-1.74,1.88-2.69,5.41-.95,3.54-1.68,5.31-2.2,5.31H.7c-.47,0-.7-.16-.7-.49,0-.23.16-.76.49-1.58l8.61-23.55c.73-1.9,2.93-7.37,6.61-16.42.66-1.5,1.55-3.76,2.67-6.79.28-.89.59-1.34.91-1.34.44,0,1.1.06,1.97.18.87.12,1.52.18,1.97.18.42,0,1.06-.06,1.92-.19.86-.13,1.48-.19,1.88-.19.21,0,.5.43.88,1.3.56,1.31,3.34,8.38,8.33,21.2,7.05,18.02,10.58,27.12,10.58,27.28ZM30.45,32.32c0-.68-1.05-3.73-3.16-9.14-2.04-5.25-3.48-8.7-4.32-10.34-4.85,12.38-7.28,18.86-7.28,19.44,0,.8.89,1.27,2.67,1.41.09.02,1.24.04,3.45.04h3.62c3.35,0,5.03-.47,5.03-1.41Z"/>
      <path class="cls-1" d="M59.62,3.38l-.04.46c-.52,8.72-.77,16.21-.77,22.46,0,2.79.05,6.97.14,12.53.09,5.57.14,9.73.14,12.5,0,.54-.19.81-.56.81h-6.71c-.42,0-.63-.27-.63-.81,0-2.77.02-6.93.07-12.5.05-5.57.07-9.74.07-12.53,0-2.53-.12-6.33-.37-11.41-.25-5.07-.37-8.86-.37-11.37,0-.47.25-.7.74-.7.42,0,1.05.04,1.9.11s1.48.11,1.9.11c.44,0,1.1-.04,1.97-.11.87-.07,1.51-.11,1.93-.11s.62.19.6.56Z"/>
      <path class="cls-2" d="M101.46,35.16c0,4.64-1.44,8.68-4.32,12.13-3.07,3.66-6.89,5.48-11.46,5.48-3.05,0-5.73-.77-8.05-2.32-.94-.8-1.88-1.58-2.81-2.36-.26.07-.43.77-.51,2.11-.08,1.34-.28,2-.58,2h-7.42c-.28,0-.42-.15-.42-.46,0,.02.02-.19.07-.63.37-3.75.56-10.92.56-21.52,0-4.34-.19-10.7-.56-19.09-.23-5.34-.35-7.69-.35-7.03,0-.61.3-.95.91-1.02.84-.02,2.1-.07,3.76-.14.33-.02,1-.11,2-.25.84-.14,1.52-.21,2.04-.21.37,0,.56.27.56.81,0,.8-.06,2.02-.18,3.66-.12,1.64-.18,2.87-.18,3.69,0,1.22-.05,3.05-.16,5.5-.11,2.45-.16,4.28-.16,5.5,0,.89.16,1.34.49,1.34.16,0,.34-.13.53-.39,2.58-3.21,5.99-4.82,10.23-4.82,4.85,0,8.78,1.82,11.78,5.45,2.81,3.42,4.22,7.61,4.22,12.55ZM93.52,34.85c0-2.79-.88-5.25-2.64-7.38-1.88-2.27-4.18-3.41-6.93-3.41s-5.16,1.11-7.03,3.34c-1.81,2.11-2.71,4.59-2.71,7.45s.9,5.41,2.71,7.52c1.88,2.2,4.24,3.3,7.1,3.3s5.07-1.14,6.93-3.41c1.71-2.11,2.57-4.58,2.57-7.42Z"/>
      <path class="cls-1" d="M139.04,20.26c0,1.71-.07,4.29-.21,7.75-.14,3.46-.21,6.05-.21,7.79s.05,4.27.16,7.68.16,5.97.16,7.68c0,.47-.22.77-.67.91-.19.05-2.57.07-7.14.07-.28,0-.45-.88-.51-2.64s-.19-2.64-.4-2.64c-.12,0-.29.11-.53.32-3.91,3.4-7.78,5.1-11.6,5.1-5.18,0-8.6-1.88-10.27-5.62-1.03-2.32-1.55-6.49-1.55-12.52,0-5.44.43-10.04,1.3-13.82.21-.91.6-1.37,1.16-1.37.68,0,1.7.01,3.06.04,1.36.02,2.38.04,3.06.04.47,0,.7.26.7.77,0,.91-.15,2.44-.46,4.57-.33,2.27-.5,3.88-.53,4.82-.07,1.41-.11,2.95-.11,4.64,0,4.1.29,6.86.88,8.26,1.01,2.53,3.25,3.8,6.71,3.8,1.48,0,3.22-.73,5.24-2.18,2.13-1.52,3.23-2.99,3.3-4.39.12-1.76.18-7.95.18-18.56,0-1.15.48-1.72,1.44-1.72h5.8c.68,0,1.02.41,1.02,1.23Z"/>
      <path class="cls-1" d="M199.65,50.84c0,.91-.27,1.37-.81,1.37-.35,0-.88-.04-1.6-.11s-1.26-.11-1.63-.11c-.4,0-1,.02-1.79.07-.8.05-1.39.07-1.79.07-.49,0-.74-.55-.74-1.65s.04-2.69.12-4.83.12-3.76.12-4.83c0-5.93-.02-9.23-.07-9.91-.19-2.41-.68-4.08-1.48-4.99-.91-.98-2.54-1.48-4.89-1.48-1.48,0-3.14.7-4.99,2.11-1.92,1.48-2.92,2.93-2.99,4.36-.09,1.83-.14,5.17-.14,10.02,0,1.15.05,2.87.14,5.17.09,2.3.14,4.02.14,5.17,0,.63-.21.95-.63.95s-1.04-.04-1.85-.11-1.42-.11-1.85-.11c-.38,0-.93.02-1.65.07-.73.05-1.28.07-1.65.07-.47,0-.7-.34-.7-1.02,0-1.12.04-2.82.11-5.08.07-2.26.11-3.96.11-5.08v-8.47c0-2.65-.32-4.54-.95-5.66-.89-1.59-2.59-2.39-5.1-2.39-1.48,0-3.23.62-5.27,1.86-2.25,1.36-3.38,2.73-3.38,4.11v10.27c0,1.17.01,2.92.04,5.24s.04,4.06.04,5.2c0,.68-.27,1.02-.81,1.02h-6.54c-.47,0-.7-.32-.7-.95,0-1.9.01-4.75.04-8.56.02-3.81.04-6.66.04-8.56,0-4.29-.46-8.57-1.37-12.83-.07-.3-.11-.55-.11-.74,0-.3.11-.48.32-.53.87-.09,2.13-.27,3.8-.53.77-.23,1.93-.49,3.48-.77l.28-.04c.28,0,.54.83.79,2.48s.46,2.48.65,2.48l1.76-1.55c1.38-1.2,2.77-2.14,4.15-2.85,1.99-1.03,3.98-1.55,5.98-1.55,5.39,0,8.82,2.2,10.3,6.61,1.45-1.88,3.26-3.42,5.41-4.64,2.3-1.31,4.57-1.97,6.82-1.97,4.34,0,7.34,1.27,9,3.8,1.2,1.88,1.79,4.84,1.79,8.89,0,.77-.02,1.97-.07,3.59s-.07,2.81-.07,3.59c0,1.48.04,3.7.11,6.66.07,2.97.11,5.19.11,6.66Z"/>
      <path class="cls-1" d="M223.07,41.32c0,3.49-1.39,6.29-4.18,8.4-2.53,1.92-5.61,2.88-9.25,2.88-1.41,0-2.2-.04-2.39-.11-.4-.19-.6-.76-.6-1.72,0-.52-.06-1.29-.19-2.32-.13-1.03-.19-1.79-.19-2.29,0-.3.21-.5.63-.6.3-.07.74-.07,1.3,0,.73.07,1.08.11,1.05.11,4.43,0,6.64-1.36,6.64-4.08,0-1.29-.97-2.47-2.92-3.55-3.16-1.73-4.98-2.8-5.45-3.2-1.95-1.66-2.92-3.84-2.92-6.54,0-3.52,1.32-6.26,3.97-8.23,2.39-1.76,5.41-2.64,9.07-2.64.33,0,.57.15.72.46.15.3.45,1.25.88,2.85.43,1.59.65,2.55.65,2.88,0,.26-.22.42-.67.49-1.5.21-3.01.41-4.54.6-1.8.49-2.71,1.48-2.71,2.95,0,1.05.95,2.12,2.85,3.2,2.81,1.57,4.59,2.71,5.34,3.41,1.92,1.83,2.88,4.17,2.88,7.03Z"/>
      <path class="cls-1" d="M237.8,48.03c0,1.41-.42,2.6-1.27,3.59s-1.96,1.48-3.34,1.48-2.5-.52-3.34-1.55c-.8-.94-1.2-2.11-1.2-3.52s.41-2.54,1.23-3.48c.82-.94,1.92-1.41,3.3-1.41s2.47.47,3.32,1.41c.86.94,1.28,2.1,1.28,3.48ZM237.66,11.75c0,5.93-.43,11.36-1.3,16.28-.35,1.85-.81,4.63-1.37,8.33-.09.91-.71,1.37-1.86,1.37-.66,0-1.11-.05-1.37-.14-.38-.12-.62-.47-.74-1.05-1.43-7.03-2.14-11.52-2.14-13.46V4.12c0-.91.14-1.37.42-1.37.42,0,1.07.06,1.93.18.87.12,1.52.18,1.97.18s1.11-.06,1.99-.18c.88-.12,1.53-.18,1.95-.18.3,0,.46.44.46,1.32s.01,2.17.04,3.87c.02,1.7.04,2.97.04,3.81Z"/>
    </g>
  </g>
  <g id="Layer_4">
    <g>
      <path class="cls-1" d="M46.83,49.85c0,.28-.28.42-.84.42-.45,0-1.1-.04-1.95-.11-.86-.07-1.51-.11-1.95-.11s-1.11.04-2,.11c-.89.07-1.56.11-2,.11-.66,0-1.49-1.78-2.51-5.33s-2.06-5.35-3.11-5.4c-.87-.05-3.13-.07-6.79-.07h-5.55c-3.87,0-6.07.02-6.61.07-.84.07-1.74,1.88-2.69,5.41-.95,3.54-1.68,5.31-2.2,5.31H.7c-.47,0-.7-.16-.7-.49,0-.23.16-.76.49-1.58l8.61-23.55c.73-1.9,2.93-7.37,6.61-16.42.66-1.5,1.55-3.76,2.67-6.79.28-.89.59-1.34.91-1.34.44,0,1.1.06,1.97.18.87.12,1.52.18,1.97.18.42,0,1.06-.06,1.92-.19.86-.13,1.48-.19,1.88-.19.21,0,.5.43.88,1.3.56,1.31,3.34,8.38,8.33,21.2,7.05,18.02,10.58,27.12,10.58,27.28ZM30.45,30.45c0-.68-1.05-3.73-3.16-9.14-2.04-5.25-3.48-8.7-4.32-10.34-4.85,12.38-7.28,18.86-7.28,19.44,0,.8.89,1.27,2.67,1.41.09.02,1.24.04,3.45.04h3.62c3.35,0,5.03-.47,5.03-1.41Z"/>
      <path class="cls-1" d="M59.62,1.51l-.04.46c-.52,8.72-.77,16.21-.77,22.46,0,2.79.05,6.97.14,12.53.09,5.57.14,9.73.14,12.5,0,.54-.19.81-.56.81h-6.71c-.42,0-.63-.27-.63-.81,0-2.77.02-6.93.07-12.5.05-5.57.07-9.74.07-12.53,0-2.53-.12-6.33-.37-11.41-.25-5.07-.37-8.86-.37-11.37,0-.47.25-.7.74-.7.42,0,1.05.04,1.9.11s1.48.11,1.9.11c.44,0,1.1-.04,1.97-.11.87-.07,1.51-.11,1.93-.11s.62.19.6.56Z"/>
      <path class="cls-1" d="M101.46,33.29c0,4.64-1.44,8.68-4.32,12.13-3.07,3.66-6.89,5.48-11.46,5.48-3.05,0-5.73-.77-8.05-2.32-.94-.8-1.88-1.58-2.81-2.36-.26.07-.43.77-.51,2.11-.08,1.34-.28,2-.58,2h-7.42c-.28,0-.42-.15-.42-.46,0,.02.02-.19.07-.63.37-3.75.56-10.92.56-21.52,0-4.34-.19-10.7-.56-19.09-.23-5.34-.35-7.69-.35-7.03,0-.61.3-.95.91-1.02.84-.02,2.1-.07,3.76-.14.33-.02,1-.11,2-.25.84-.14,1.52-.21,2.04-.21.37,0,.56.27.56.81,0,.8-.06,2.02-.18,3.66-.12,1.64-.18,2.87-.18,3.69,0,1.22-.05,3.05-.16,5.5-.11,2.45-.16,4.28-.16,5.5,0,.89.16,1.34.49,1.34.16,0,.34-.13.53-.39,2.58-3.21,5.99-4.82,10.23-4.82,4.85,0,8.78,1.82,11.78,5.45,2.81,3.42,4.22,7.61,4.22,12.55ZM93.52,32.98c0-2.79-.88-5.25-2.64-7.38-1.88-2.27-4.18-3.41-6.93-3.41s-5.16,1.11-7.03,3.34c-1.81,2.11-2.71,4.59-2.71,7.45s.9,5.41,2.71,7.52c1.88,2.2,4.24,3.3,7.1,3.3s5.07-1.14,6.93-3.41c1.71-2.11,2.57-4.58,2.57-7.42Z"/>
      <path class="cls-2" d="M139.04,18.39c0,1.71-.07,4.29-.21,7.75-.14,3.46-.21,6.05-.21,7.79s.05,4.27.16,7.68.16,5.97.16,7.68c0,.47-.22.77-.67.91-.19.05-2.57.07-7.14.07-.28,0-.45-.88-.51-2.64s-.19-2.64-.4-2.64c-.12,0-.29.11-.53.32-3.91,3.4-7.78,5.1-11.6,5.1-5.18,0-8.6-1.88-10.27-5.62-1.03-2.32-1.55-6.49-1.55-12.52,0-5.44.43-10.04,1.3-13.82.21-.91.6-1.37,1.16-1.37.68,0,1.7.01,3.06.04,1.36.02,2.38.04,3.06.04.47,0,.7.26.7.77,0,.91-.15,2.44-.46,4.57-.33,2.27-.5,3.88-.53,4.82-.07,1.41-.11,2.95-.11,4.64,0,4.1.29,6.86.88,8.26,1.01,2.53,3.25,3.8,6.71,3.8,1.48,0,3.22-.73,5.24-2.18,2.13-1.52,3.23-2.99,3.3-4.39.12-1.76.18-7.95.18-18.56,0-1.15.48-1.72,1.44-1.72h5.8c.68,0,1.02.41,1.02,1.23Z"/>
      <path class="cls-1" d="M199.65,48.97c0,.91-.27,1.37-.81,1.37-.35,0-.88-.04-1.6-.11s-1.26-.11-1.63-.11c-.4,0-1,.02-1.79.07-.8.05-1.39.07-1.79.07-.49,0-.74-.55-.74-1.65s.04-2.69.12-4.83.12-3.76.12-4.83c0-5.93-.02-9.23-.07-9.91-.19-2.41-.68-4.08-1.48-4.99-.91-.98-2.54-1.48-4.89-1.48-1.48,0-3.14.7-4.99,2.11-1.92,1.48-2.92,2.93-2.99,4.36-.09,1.83-.14,5.17-.14,10.02,0,1.15.05,2.87.14,5.17.09,2.3.14,4.02.14,5.17,0,.63-.21.95-.63.95s-1.04-.04-1.85-.11-1.42-.11-1.85-.11c-.38,0-.93.02-1.65.07-.73.05-1.28.07-1.65.07-.47,0-.7-.34-.7-1.02,0-1.12.04-2.82.11-5.08.07-2.26.11-3.96.11-5.08v-8.47c0-2.65-.32-4.54-.95-5.66-.89-1.59-2.59-2.39-5.1-2.39-1.48,0-3.23.62-5.27,1.86-2.25,1.36-3.38,2.73-3.38,4.11v10.27c0,1.17.01,2.92.04,5.24s.04,4.06.04,5.2c0,.68-.27,1.02-.81,1.02h-6.54c-.47,0-.7-.32-.7-.95,0-1.9.01-4.75.04-8.56.02-3.81.04-6.66.04-8.56,0-4.29-.46-8.57-1.37-12.83-.07-.3-.11-.55-.11-.74,0-.3.11-.48.32-.53.87-.09,2.13-.27,3.8-.53.77-.23,1.93-.49,3.48-.77l.28-.04c.28,0,.54.83.79,2.48s.46,2.48.65,2.48l1.76-1.55c1.38-1.2,2.77-2.14,4.15-2.85,1.99-1.03,3.98-1.55,5.98-1.55,5.39,0,8.82,2.2,10.3,6.61,1.45-1.88,3.26-3.42,5.41-4.64,2.3-1.31,4.57-1.97,6.82-1.97,4.34,0,7.34,1.27,9,3.8,1.2,1.88,1.79,4.84,1.79,8.89,0,.77-.02,1.97-.07,3.59s-.07,2.81-.07,3.59c0,1.48.04,3.7.11,6.66.07,2.97.11,5.19.11,6.66Z"/>
      <path class="cls-1" d="M223.07,39.45c0,3.49-1.39,6.29-4.18,8.4-2.53,1.92-5.61,2.88-9.25,2.88-1.41,0-2.2-.04-2.39-.11-.4-.19-.6-.76-.6-1.72,0-.52-.06-1.29-.19-2.32-.13-1.03-.19-1.79-.19-2.29,0-.3.21-.5.63-.6.3-.07.74-.07,1.3,0,.73.07,1.08.11,1.05.11,4.43,0,6.64-1.36,6.64-4.08,0-1.29-.97-2.47-2.92-3.55-3.16-1.73-4.98-2.8-5.45-3.2-1.95-1.66-2.92-3.84-2.92-6.54,0-3.52,1.32-6.26,3.97-8.23,2.39-1.76,5.41-2.64,9.07-2.64.33,0,.57.15.72.46.15.3.45,1.25.88,2.85.43,1.59.65,2.55.65,2.88,0,.26-.22.42-.67.49-1.5.21-3.01.41-4.54.6-1.8.49-2.71,1.48-2.71,2.95,0,1.05.95,2.12,2.85,3.2,2.81,1.57,4.59,2.71,5.34,3.41,1.92,1.83,2.88,4.17,2.88,7.03Z"/>
      <path class="cls-1" d="M237.8,46.16c0,1.41-.42,2.6-1.27,3.59s-1.96,1.48-3.34,1.48-2.5-.52-3.34-1.55c-.8-.94-1.2-2.11-1.2-3.52s.41-2.54,1.23-3.48c.82-.94,1.92-1.41,3.3-1.41s2.47.47,3.32,1.41c.86.94,1.28,2.1,1.28,3.48ZM237.66,9.88c0,5.93-.43,11.36-1.3,16.28-.35,1.85-.81,4.63-1.37,8.33-.09.91-.71,1.37-1.86,1.37-.66,0-1.11-.05-1.37-.14-.38-.12-.62-.47-.74-1.05-1.43-7.03-2.14-11.52-2.14-13.46V2.25c0-.91.14-1.37.42-1.37.42,0,1.07.06,1.93.18.87.12,1.52.18,1.97.18s1.11-.06,1.99-.18c.88-.12,1.53-.18,1.95-.18.3,0,.46.44.46,1.32s.01,2.17.04,3.87c.02,1.7.04,2.97.04,3.81Z"/>
    </g>
  </g>
  <g id="Layer_5">
    <g>
      <path class="cls-1" d="M46.83,52.66c0,.28-.28.42-.84.42-.45,0-1.1-.04-1.95-.11-.86-.07-1.51-.11-1.95-.11s-1.11.04-2,.11c-.89.07-1.56.11-2,.11-.66,0-1.49-1.78-2.51-5.33s-2.06-5.35-3.11-5.4c-.87-.05-3.13-.07-6.79-.07h-5.55c-3.87,0-6.07.02-6.61.07-.84.07-1.74,1.88-2.69,5.41-.95,3.54-1.68,5.31-2.2,5.31H.7c-.47,0-.7-.16-.7-.49,0-.23.16-.76.49-1.58l8.61-23.55c.73-1.9,2.93-7.37,6.61-16.42.66-1.5,1.55-3.76,2.67-6.79.28-.89.59-1.34.91-1.34.44,0,1.1.06,1.97.18.87.12,1.52.18,1.97.18.42,0,1.06-.06,1.92-.19.86-.13,1.48-.19,1.88-.19.21,0,.5.43.88,1.3.56,1.31,3.34,8.38,8.33,21.2,7.05,18.02,10.58,27.12,10.58,27.28ZM30.45,33.25c0-.68-1.05-3.73-3.16-9.14-2.04-5.25-3.48-8.7-4.32-10.34-4.85,12.38-7.28,18.86-7.28,19.44,0,.8.89,1.27,2.67,1.41.09.02,1.24.04,3.45.04h3.62c3.35,0,5.03-.47,5.03-1.41Z"/>
      <path class="cls-1" d="M59.62,4.32l-.04.46c-.52,8.72-.77,16.21-.77,22.46,0,2.79.05,6.97.14,12.53.09,5.57.14,9.73.14,12.5,0,.54-.19.81-.56.81h-6.71c-.42,0-.63-.27-.63-.81,0-2.77.02-6.93.07-12.5.05-5.57.07-9.74.07-12.53,0-2.53-.12-6.33-.37-11.41-.25-5.07-.37-8.86-.37-11.37,0-.47.25-.7.74-.7.42,0,1.05.04,1.9.11s1.48.11,1.9.11c.44,0,1.1-.04,1.97-.11.87-.07,1.51-.11,1.93-.11s.62.19.6.56Z"/>
      <path class="cls-1" d="M101.46,36.1c0,4.64-1.44,8.68-4.32,12.13-3.07,3.66-6.89,5.48-11.46,5.48-3.05,0-5.73-.77-8.05-2.32-.94-.8-1.88-1.58-2.81-2.36-.26.07-.43.77-.51,2.11-.08,1.34-.28,2-.58,2h-7.42c-.28,0-.42-.15-.42-.46,0,.02.02-.19.07-.63.37-3.75.56-10.92.56-21.52,0-4.34-.19-10.7-.56-19.09-.23-5.34-.35-7.69-.35-7.03,0-.61.3-.95.91-1.02.84-.02,2.1-.07,3.76-.14.33-.02,1-.11,2-.25.84-.14,1.52-.21,2.04-.21.37,0,.56.27.56.81,0,.8-.06,2.02-.18,3.66-.12,1.64-.18,2.87-.18,3.69,0,1.22-.05,3.05-.16,5.5-.11,2.45-.16,4.28-.16,5.5,0,.89.16,1.34.49,1.34.16,0,.34-.13.53-.39,2.58-3.21,5.99-4.82,10.23-4.82,4.85,0,8.78,1.82,11.78,5.45,2.81,3.42,4.22,7.61,4.22,12.55ZM93.52,35.78c0-2.79-.88-5.25-2.64-7.38-1.88-2.27-4.18-3.41-6.93-3.41s-5.16,1.11-7.03,3.34c-1.81,2.11-2.71,4.59-2.71,7.45s.9,5.41,2.71,7.52c1.88,2.2,4.24,3.3,7.1,3.3s5.07-1.14,6.93-3.41c1.71-2.11,2.57-4.58,2.57-7.42Z"/>
      <path class="cls-1" d="M139.04,21.19c0,1.71-.07,4.29-.21,7.75-.14,3.46-.21,6.05-.21,7.79s.05,4.27.16,7.68.16,5.97.16,7.68c0,.47-.22.77-.67.91-.19.05-2.57.07-7.14.07-.28,0-.45-.88-.51-2.64s-.19-2.64-.4-2.64c-.12,0-.29.11-.53.32-3.91,3.4-7.78,5.1-11.6,5.1-5.18,0-8.6-1.88-10.27-5.62-1.03-2.32-1.55-6.49-1.55-12.52,0-5.44.43-10.04,1.3-13.82.21-.91.6-1.37,1.16-1.37.68,0,1.7.01,3.06.04,1.36.02,2.38.04,3.06.04.47,0,.7.26.7.77,0,.91-.15,2.44-.46,4.57-.33,2.27-.5,3.88-.53,4.82-.07,1.41-.11,2.95-.11,4.64,0,4.1.29,6.86.88,8.26,1.01,2.53,3.25,3.8,6.71,3.8,1.48,0,3.22-.73,5.24-2.18,2.13-1.52,3.23-2.99,3.3-4.39.12-1.76.18-7.95.18-18.56,0-1.15.48-1.72,1.44-1.72h5.8c.68,0,1.02.41,1.02,1.23Z"/>
      <path class="cls-2" d="M199.65,51.78c0,.91-.27,1.37-.81,1.37-.35,0-.88-.04-1.6-.11s-1.26-.11-1.63-.11c-.4,0-1,.02-1.79.07-.8.05-1.39.07-1.79.07-.49,0-.74-.55-.74-1.65s.04-2.69.12-4.83.12-3.76.12-4.83c0-5.93-.02-9.23-.07-9.91-.19-2.41-.68-4.08-1.48-4.99-.91-.98-2.54-1.48-4.89-1.48-1.48,0-3.14.7-4.99,2.11-1.92,1.48-2.92,2.93-2.99,4.36-.09,1.83-.14,5.17-.14,10.02,0,1.15.05,2.87.14,5.17.09,2.3.14,4.02.14,5.17,0,.63-.21.95-.63.95s-1.04-.04-1.85-.11-1.42-.11-1.85-.11c-.38,0-.93.02-1.65.07-.73.05-1.28.07-1.65.07-.47,0-.7-.34-.7-1.02,0-1.12.04-2.82.11-5.08.07-2.26.11-3.96.11-5.08v-8.47c0-2.65-.32-4.54-.95-5.66-.89-1.59-2.59-2.39-5.1-2.39-1.48,0-3.23.62-5.27,1.86-2.25,1.36-3.38,2.73-3.38,4.11v10.27c0,1.17.01,2.92.04,5.24s.04,4.06.04,5.2c0,.68-.27,1.02-.81,1.02h-6.54c-.47,0-.7-.32-.7-.95,0-1.9.01-4.75.04-8.56.02-3.81.04-6.66.04-8.56,0-4.29-.46-8.57-1.37-12.83-.07-.3-.11-.55-.11-.74,0-.3.11-.48.32-.53.87-.09,2.13-.27,3.8-.53.77-.23,1.93-.49,3.48-.77l.28-.04c.28,0,.54.83.79,2.48s.46,2.48.65,2.48l1.76-1.55c1.38-1.2,2.77-2.14,4.15-2.85,1.99-1.03,3.98-1.55,5.98-1.55,5.39,0,8.82,2.2,10.3,6.61,1.45-1.88,3.26-3.42,5.41-4.64,2.3-1.31,4.57-1.97,6.82-1.97,4.34,0,7.34,1.27,9,3.8,1.2,1.88,1.79,4.84,1.79,8.89,0,.77-.02,1.97-.07,3.59s-.07,2.81-.07,3.59c0,1.48.04,3.7.11,6.66.07,2.97.11,5.19.11,6.66Z"/>
      <path class="cls-1" d="M223.07,42.25c0,3.49-1.39,6.29-4.18,8.4-2.53,1.92-5.61,2.88-9.25,2.88-1.41,0-2.2-.04-2.39-.11-.4-.19-.6-.76-.6-1.72,0-.52-.06-1.29-.19-2.32-.13-1.03-.19-1.79-.19-2.29,0-.3.21-.5.63-.6.3-.07.74-.07,1.3,0,.73.07,1.08.11,1.05.11,4.43,0,6.64-1.36,6.64-4.08,0-1.29-.97-2.47-2.92-3.55-3.16-1.73-4.98-2.8-5.45-3.2-1.95-1.66-2.92-3.84-2.92-6.54,0-3.52,1.32-6.26,3.97-8.23,2.39-1.76,5.41-2.64,9.07-2.64.33,0,.57.15.72.46.15.3.45,1.25.88,2.85.43,1.59.65,2.55.65,2.88,0,.26-.22.42-.67.49-1.5.21-3.01.41-4.54.6-1.8.49-2.71,1.48-2.71,2.95,0,1.05.95,2.12,2.85,3.2,2.81,1.57,4.59,2.71,5.34,3.41,1.92,1.83,2.88,4.17,2.88,7.03Z"/>
      <path class="cls-1" d="M237.8,48.97c0,1.41-.42,2.6-1.27,3.59s-1.96,1.48-3.34,1.48-2.5-.52-3.34-1.55c-.8-.94-1.2-2.11-1.2-3.52s.41-2.54,1.23-3.48c.82-.94,1.92-1.41,3.3-1.41s2.47.47,3.32,1.41c.86.94,1.28,2.1,1.28,3.48ZM237.66,12.68c0,5.93-.43,11.36-1.3,16.28-.35,1.85-.81,4.63-1.37,8.33-.09.91-.71,1.37-1.86,1.37-.66,0-1.11-.05-1.37-.14-.38-.12-.62-.47-.74-1.05-1.43-7.03-2.14-11.52-2.14-13.46V5.06c0-.91.14-1.37.42-1.37.42,0,1.07.06,1.93.18.87.12,1.52.18,1.97.18s1.11-.06,1.99-.18c.88-.12,1.53-.18,1.95-.18.3,0,.46.44.46,1.32s.01,2.17.04,3.87c.02,1.7.04,2.97.04,3.81Z"/>
    </g>
  </g>
  <g id="Layer_6">
    <g>
      <path class="cls-1" d="M46.83,50.79c0,.28-.28.42-.84.42-.45,0-1.1-.04-1.95-.11-.86-.07-1.51-.11-1.95-.11s-1.11.04-2,.11c-.89.07-1.56.11-2,.11-.66,0-1.49-1.78-2.51-5.33s-2.06-5.35-3.11-5.4c-.87-.05-3.13-.07-6.79-.07h-5.55c-3.87,0-6.07.02-6.61.07-.84.07-1.74,1.88-2.69,5.41s-1.68,5.31-2.2,5.31H.7c-.47,0-.7-.16-.7-.49,0-.23.16-.76.49-1.58l8.61-23.55c.73-1.9,2.93-7.37,6.61-16.42.66-1.5,1.55-3.76,2.67-6.79.28-.89.59-1.34.91-1.34.44,0,1.1.06,1.97.18.87.12,1.52.18,1.97.18.42,0,1.06-.06,1.92-.19.86-.13,1.48-.19,1.88-.19.21,0,.5.43.88,1.3.56,1.31,3.34,8.38,8.33,21.2,7.05,18.02,10.58,27.12,10.58,27.28ZM30.45,31.38c0-.68-1.05-3.73-3.16-9.14-2.04-5.25-3.48-8.7-4.32-10.34-4.85,12.38-7.28,18.86-7.28,19.44,0,.8.89,1.27,2.67,1.41.09.02,1.24.04,3.45.04h3.62c3.35,0,5.03-.47,5.03-1.41Z"/>
      <path class="cls-1" d="M59.62,2.45l-.04.46c-.52,8.72-.77,16.21-.77,22.46,0,2.79.05,6.97.14,12.53.09,5.57.14,9.73.14,12.5,0,.54-.19.81-.56.81h-6.71c-.42,0-.63-.27-.63-.81,0-2.77.02-6.93.07-12.5.05-5.57.07-9.74.07-12.53,0-2.53-.12-6.33-.37-11.41s-.37-8.87-.37-11.37c0-.47.25-.7.74-.7.42,0,1.05.04,1.9.11s1.48.11,1.9.11c.44,0,1.1-.04,1.97-.11.87-.07,1.51-.11,1.93-.11s.62.19.6.56Z"/>
      <path class="cls-1" d="M101.46,34.23c0,4.64-1.44,8.68-4.32,12.13-3.07,3.66-6.89,5.48-11.46,5.48-3.05,0-5.73-.77-8.05-2.32-.94-.8-1.88-1.58-2.81-2.36-.26.07-.43.77-.51,2.11-.08,1.34-.28,2-.58,2h-7.42c-.28,0-.42-.15-.42-.46,0,.02.02-.19.07-.63.37-3.75.56-10.92.56-21.52,0-4.34-.19-10.7-.56-19.09-.23-5.34-.35-7.69-.35-7.03,0-.61.3-.95.91-1.02.84-.02,2.1-.07,3.76-.14.33-.02,1-.11,2-.25.84-.14,1.52-.21,2.04-.21.37,0,.56.27.56.81,0,.8-.06,2.02-.18,3.66-.12,1.64-.18,2.87-.18,3.69,0,1.22-.05,3.05-.16,5.5s-.16,4.28-.16,5.5c0,.89.16,1.34.49,1.34.16,0,.34-.13.53-.39,2.58-3.21,5.99-4.82,10.23-4.82,4.85,0,8.78,1.82,11.78,5.45,2.81,3.42,4.22,7.61,4.22,12.55ZM93.52,33.91c0-2.79-.88-5.25-2.64-7.38-1.88-2.27-4.18-3.41-6.93-3.41s-5.16,1.11-7.03,3.34c-1.81,2.11-2.71,4.59-2.71,7.45s.9,5.41,2.71,7.52c1.88,2.2,4.24,3.3,7.1,3.3s5.07-1.14,6.93-3.41c1.71-2.11,2.57-4.58,2.57-7.42Z"/>
      <path class="cls-1" d="M139.04,19.32c0,1.71-.07,4.29-.21,7.75s-.21,6.05-.21,7.79.05,4.27.16,7.68.16,5.97.16,7.68c0,.47-.22.77-.67.91-.19.05-2.57.07-7.14.07-.28,0-.45-.88-.51-2.64s-.19-2.64-.4-2.64c-.12,0-.29.11-.53.32-3.91,3.4-7.78,5.1-11.6,5.1-5.18,0-8.6-1.88-10.27-5.62-1.03-2.32-1.55-6.49-1.55-12.52,0-5.44.43-10.04,1.3-13.82.21-.91.6-1.37,1.16-1.37.68,0,1.7.01,3.06.04,1.36.02,2.38.04,3.06.04.47,0,.7.26.7.77,0,.91-.15,2.44-.46,4.57-.33,2.27-.5,3.88-.53,4.82-.07,1.41-.11,2.95-.11,4.64,0,4.1.29,6.86.88,8.26,1.01,2.53,3.25,3.8,6.71,3.8,1.48,0,3.22-.73,5.24-2.18,2.13-1.52,3.23-2.99,3.3-4.39.12-1.76.18-7.95.18-18.56,0-1.15.48-1.72,1.44-1.72h5.8c.68,0,1.02.41,1.02,1.23Z"/>
      <path class="cls-1" d="M199.65,49.91c0,.91-.27,1.37-.81,1.37-.35,0-.88-.04-1.6-.11s-1.26-.11-1.63-.11c-.4,0-1,.02-1.79.07s-1.39.07-1.79.07c-.49,0-.74-.55-.74-1.65s.04-2.69.12-4.83.12-3.76.12-4.83c0-5.93-.02-9.23-.07-9.91-.19-2.41-.68-4.08-1.48-4.99-.91-.98-2.54-1.48-4.89-1.48-1.48,0-3.14.7-4.99,2.11-1.92,1.48-2.92,2.93-2.99,4.36-.09,1.83-.14,5.17-.14,10.02,0,1.15.05,2.87.14,5.17s.14,4.02.14,5.17c0,.63-.21.95-.63.95s-1.04-.04-1.85-.11-1.42-.11-1.85-.11c-.38,0-.93.02-1.65.07s-1.28.07-1.65.07c-.47,0-.7-.34-.7-1.02,0-1.12.04-2.82.11-5.08s.11-3.96.11-5.08v-8.47c0-2.65-.32-4.54-.95-5.66-.89-1.59-2.59-2.39-5.1-2.39-1.48,0-3.23.62-5.27,1.86-2.25,1.36-3.38,2.73-3.38,4.11v10.27c0,1.17.01,2.92.04,5.24s.04,4.05.04,5.2c0,.68-.27,1.02-.81,1.02h-6.54c-.47,0-.7-.32-.7-.95,0-1.9.01-4.75.04-8.56s.04-6.66.04-8.56c0-4.29-.46-8.57-1.37-12.83-.07-.3-.11-.55-.11-.74,0-.3.11-.48.32-.53.87-.09,2.13-.27,3.8-.53.77-.23,1.93-.49,3.48-.77l.28-.04c.28,0,.54.83.79,2.48s.46,2.48.65,2.48l1.76-1.55c1.38-1.2,2.77-2.14,4.15-2.85,1.99-1.03,3.98-1.55,5.98-1.55,5.39,0,8.82,2.2,10.3,6.61,1.45-1.88,3.26-3.42,5.41-4.64,2.3-1.31,4.57-1.97,6.82-1.97,4.34,0,7.34,1.27,9,3.8,1.2,1.88,1.79,4.84,1.79,8.89,0,.77-.02,1.97-.07,3.59s-.07,2.81-.07,3.59c0,1.48.04,3.7.11,6.66s.11,5.19.11,6.66Z"/>
      <path class="cls-2" d="M223.07,40.38c0,3.49-1.39,6.29-4.18,8.4-2.53,1.92-5.61,2.88-9.25,2.88-1.41,0-2.2-.04-2.39-.11-.4-.19-.6-.76-.6-1.72,0-.52-.06-1.29-.19-2.32s-.19-1.79-.19-2.29c0-.3.21-.5.63-.6.3-.07.74-.07,1.3,0,.73.07,1.08.11,1.05.11,4.43,0,6.64-1.36,6.64-4.08,0-1.29-.97-2.47-2.92-3.55-3.16-1.73-4.98-2.8-5.45-3.2-1.95-1.66-2.92-3.84-2.92-6.54,0-3.52,1.32-6.26,3.97-8.23,2.39-1.76,5.41-2.64,9.07-2.64.33,0,.57.15.72.46s.45,1.25.88,2.85.65,2.55.65,2.88c0,.26-.22.42-.67.49-1.5.21-3.01.41-4.54.6-1.8.49-2.71,1.48-2.71,2.95,0,1.05.95,2.12,2.85,3.2,2.81,1.57,4.59,2.71,5.34,3.41,1.92,1.83,2.88,4.17,2.88,7.03Z"/>
      <path class="cls-1" d="M237.8,47.1c0,1.41-.42,2.6-1.27,3.59s-1.96,1.48-3.34,1.48-2.5-.52-3.34-1.55c-.8-.94-1.2-2.11-1.2-3.52s.41-2.54,1.23-3.48,1.92-1.41,3.3-1.41,2.47.47,3.32,1.41,1.28,2.1,1.28,3.48ZM237.66,10.81c0,5.93-.43,11.36-1.3,16.28-.35,1.85-.81,4.63-1.37,8.33-.09.91-.71,1.37-1.86,1.37-.66,0-1.11-.05-1.37-.14-.38-.12-.62-.47-.74-1.05-1.43-7.03-2.14-11.52-2.14-13.46V3.19c0-.91.14-1.37.42-1.37.42,0,1.07.06,1.93.18s1.52.18,1.97.18,1.11-.06,1.99-.18,1.53-.18,1.95-.18c.3,0,.46.44.46,1.32s.01,2.17.04,3.87.04,2.97.04,3.81Z"/>
    </g>
  </g>
  <g id="Layer_7">
    <g>
      <path class="cls-1" d="M46.83,49.85c0,.28-.28.42-.84.42-.45,0-1.1-.04-1.95-.11-.86-.07-1.51-.11-1.95-.11s-1.11.04-2,.11c-.89.07-1.56.11-2,.11-.66,0-1.49-1.78-2.51-5.33s-2.06-5.35-3.11-5.4c-.87-.05-3.13-.07-6.79-.07h-5.55c-3.87,0-6.07.02-6.61.07-.84.07-1.74,1.88-2.69,5.41-.95,3.54-1.68,5.31-2.2,5.31H.7c-.47,0-.7-.16-.7-.49,0-.23.16-.76.49-1.58l8.61-23.55c.73-1.9,2.93-7.37,6.61-16.42.66-1.5,1.55-3.76,2.67-6.79.28-.89.59-1.34.91-1.34.44,0,1.1.06,1.97.18.87.12,1.52.18,1.97.18.42,0,1.06-.06,1.92-.19.86-.13,1.48-.19,1.88-.19.21,0,.5.43.88,1.3.56,1.31,3.34,8.38,8.33,21.2,7.05,18.02,10.58,27.12,10.58,27.28ZM30.45,30.45c0-.68-1.05-3.73-3.16-9.14-2.04-5.25-3.48-8.7-4.32-10.34-4.85,12.38-7.28,18.86-7.28,19.44,0,.8.89,1.27,2.67,1.41.09.02,1.24.04,3.45.04h3.62c3.35,0,5.03-.47,5.03-1.41Z"/>
      <path class="cls-1" d="M59.62,1.51l-.04.46c-.52,8.72-.77,16.21-.77,22.46,0,2.79.05,6.97.14,12.53.09,5.57.14,9.73.14,12.5,0,.54-.19.81-.56.81h-6.71c-.42,0-.63-.27-.63-.81,0-2.77.02-6.93.07-12.5.05-5.57.07-9.74.07-12.53,0-2.53-.12-6.33-.37-11.41-.25-5.07-.37-8.86-.37-11.37,0-.47.25-.7.74-.7.42,0,1.05.04,1.9.11s1.48.11,1.9.11c.44,0,1.1-.04,1.97-.11.87-.07,1.51-.11,1.93-.11s.62.19.6.56Z"/>
      <path class="cls-1" d="M101.46,33.29c0,4.64-1.44,8.68-4.32,12.13-3.07,3.66-6.89,5.48-11.46,5.48-3.05,0-5.73-.77-8.05-2.32-.94-.8-1.88-1.58-2.81-2.36-.26.07-.43.77-.51,2.11-.08,1.34-.28,2-.58,2h-7.42c-.28,0-.42-.15-.42-.46,0,.02.02-.19.07-.63.37-3.75.56-10.92.56-21.52,0-4.34-.19-10.7-.56-19.09-.23-5.34-.35-7.69-.35-7.03,0-.61.3-.95.91-1.02.84-.02,2.1-.07,3.76-.14.33-.02,1-.11,2-.25.84-.14,1.52-.21,2.04-.21.37,0,.56.27.56.81,0,.8-.06,2.02-.18,3.66-.12,1.64-.18,2.87-.18,3.69,0,1.22-.05,3.05-.16,5.5-.11,2.45-.16,4.28-.16,5.5,0,.89.16,1.34.49,1.34.16,0,.34-.13.53-.39,2.58-3.21,5.99-4.82,10.23-4.82,4.85,0,8.78,1.82,11.78,5.45,2.81,3.42,4.22,7.61,4.22,12.55ZM93.52,32.98c0-2.79-.88-5.25-2.64-7.38-1.88-2.27-4.18-3.41-6.93-3.41s-5.16,1.11-7.03,3.34c-1.81,2.11-2.71,4.59-2.71,7.45s.9,5.41,2.71,7.52c1.88,2.2,4.24,3.3,7.1,3.3s5.07-1.14,6.93-3.41c1.71-2.11,2.57-4.58,2.57-7.42Z"/>
      <path class="cls-1" d="M139.04,18.39c0,1.71-.07,4.29-.21,7.75-.14,3.46-.21,6.05-.21,7.79s.05,4.27.16,7.68.16,5.97.16,7.68c0,.47-.22.77-.67.91-.19.05-2.57.07-7.14.07-.28,0-.45-.88-.51-2.64s-.19-2.64-.4-2.64c-.12,0-.29.11-.53.32-3.91,3.4-7.78,5.1-11.6,5.1-5.18,0-8.6-1.88-10.27-5.62-1.03-2.32-1.55-6.49-1.55-12.52,0-5.44.43-10.04,1.3-13.82.21-.91.6-1.37,1.16-1.37.68,0,1.7.01,3.06.04,1.36.02,2.38.04,3.06.04.47,0,.7.26.7.77,0,.91-.15,2.44-.46,4.57-.33,2.27-.5,3.88-.53,4.82-.07,1.41-.11,2.95-.11,4.64,0,4.1.29,6.86.88,8.26,1.01,2.53,3.25,3.8,6.71,3.8,1.48,0,3.22-.73,5.24-2.18,2.13-1.52,3.23-2.99,3.3-4.39.12-1.76.18-7.95.18-18.56,0-1.15.48-1.72,1.44-1.72h5.8c.68,0,1.02.41,1.02,1.23Z"/>
      <path class="cls-1" d="M199.65,48.97c0,.91-.27,1.37-.81,1.37-.35,0-.88-.04-1.6-.11s-1.26-.11-1.63-.11c-.4,0-1,.02-1.79.07-.8.05-1.39.07-1.79.07-.49,0-.74-.55-.74-1.65s.04-2.69.12-4.83.12-3.76.12-4.83c0-5.93-.02-9.23-.07-9.91-.19-2.41-.68-4.08-1.48-4.99-.91-.98-2.54-1.48-4.89-1.48-1.48,0-3.14.7-4.99,2.11-1.92,1.48-2.92,2.93-2.99,4.36-.09,1.83-.14,5.17-.14,10.02,0,1.15.05,2.87.14,5.17.09,2.3.14,4.02.14,5.17,0,.63-.21.95-.63.95s-1.04-.04-1.85-.11-1.42-.11-1.85-.11c-.38,0-.93.02-1.65.07-.73.05-1.28.07-1.65.07-.47,0-.7-.34-.7-1.02,0-1.12.04-2.82.11-5.08.07-2.26.11-3.96.11-5.08v-8.47c0-2.65-.32-4.54-.95-5.66-.89-1.59-2.59-2.39-5.1-2.39-1.48,0-3.23.62-5.27,1.86-2.25,1.36-3.38,2.73-3.38,4.11v10.27c0,1.17.01,2.92.04,5.24s.04,4.06.04,5.2c0,.68-.27,1.02-.81,1.02h-6.54c-.47,0-.7-.32-.7-.95,0-1.9.01-4.75.04-8.56.02-3.81.04-6.66.04-8.56,0-4.29-.46-8.57-1.37-12.83-.07-.3-.11-.55-.11-.74,0-.3.11-.48.32-.53.87-.09,2.13-.27,3.8-.53.77-.23,1.93-.49,3.48-.77l.28-.04c.28,0,.54.83.79,2.48s.46,2.48.65,2.48l1.76-1.55c1.38-1.2,2.77-2.14,4.15-2.85,1.99-1.03,3.98-1.55,5.98-1.55,5.39,0,8.82,2.2,10.3,6.61,1.45-1.88,3.26-3.42,5.41-4.64,2.3-1.31,4.57-1.97,6.82-1.97,4.34,0,7.34,1.27,9,3.8,1.2,1.88,1.79,4.84,1.79,8.89,0,.77-.02,1.97-.07,3.59s-.07,2.81-.07,3.59c0,1.48.04,3.7.11,6.66.07,2.97.11,5.19.11,6.66Z"/>
      <path class="cls-1" d="M223.07,39.45c0,3.49-1.39,6.29-4.18,8.4-2.53,1.92-5.61,2.88-9.25,2.88-1.41,0-2.2-.04-2.39-.11-.4-.19-.6-.76-.6-1.72,0-.52-.06-1.29-.19-2.32-.13-1.03-.19-1.79-.19-2.29,0-.3.21-.5.63-.6.3-.07.74-.07,1.3,0,.73.07,1.08.11,1.05.11,4.43,0,6.64-1.36,6.64-4.08,0-1.29-.97-2.47-2.92-3.55-3.16-1.73-4.98-2.8-5.45-3.2-1.95-1.66-2.92-3.84-2.92-6.54,0-3.52,1.32-6.26,3.97-8.23,2.39-1.76,5.41-2.64,9.07-2.64.33,0,.57.15.72.46.15.3.45,1.25.88,2.85.43,1.59.65,2.55.65,2.88,0,.26-.22.42-.67.49-1.5.21-3.01.41-4.54.6-1.8.49-2.71,1.48-2.71,2.95,0,1.05.95,2.12,2.85,3.2,2.81,1.57,4.59,2.71,5.34,3.41,1.92,1.83,2.88,4.17,2.88,7.03Z"/>
      <path class="cls-2" d="M237.8,46.16c0,1.41-.42,2.6-1.27,3.59s-1.96,1.48-3.34,1.48-2.5-.52-3.34-1.55c-.8-.94-1.2-2.11-1.2-3.52s.41-2.54,1.23-3.48c.82-.94,1.92-1.41,3.3-1.41s2.47.47,3.32,1.41c.86.94,1.28,2.1,1.28,3.48ZM237.66,9.88c0,5.93-.43,11.36-1.3,16.28-.35,1.85-.81,4.63-1.37,8.33-.09.91-.71,1.37-1.86,1.37-.66,0-1.11-.05-1.37-.14-.38-.12-.62-.47-.74-1.05-1.43-7.03-2.14-11.52-2.14-13.46V2.25c0-.91.14-1.37.42-1.37.42,0,1.07.06,1.93.18.87.12,1.52.18,1.97.18s1.11-.06,1.99-.18c.88-.12,1.53-.18,1.95-.18.3,0,.46.44.46,1.32s.01,2.17.04,3.87c.02,1.7.04,2.97.04,3.81Z"/>
    </g>
  </g>
</svg>